<svg xmlns="http://www.w3.org/2000/svg" xmlns:xlink="http://www.w3.org/1999/xlink" width="48" height="48" viewBox="0 0 48 48">
  <defs>
    <clipPath id="clip-path">
      <rect id="Rectangle_545" data-name="Rectangle 545" width="48" height="48" fill="#fff" stroke="#fff" stroke-width="1"/>
    </clipPath>
    <clipPath id="clip-path-2">
      <rect id="Rectangle_544" data-name="Rectangle 544" width="39.385" height="39.385" transform="translate(0 0)" fill="#fff"/>
    </clipPath>
  </defs>
  <g id="ic_social_ig" clip-path="url(#clip-path)">
    <g id="Group_250" data-name="Group 250" transform="translate(3.692 3.692)" clip-path="url(#clip-path-2)">
      <path id="Path_223" data-name="Path 223" d="M23.784,7.648c5.259,0,5.876.023,7.955.117a10.742,10.742,0,0,1,3.657.68,6.109,6.109,0,0,1,2.266,1.469A6.014,6.014,0,0,1,39.13,12.18a10.944,10.944,0,0,1,.68,3.657c.094,2.079.117,2.7.117,7.955s-.023,5.876-.117,7.955a10.742,10.742,0,0,1-.68,3.657,6.109,6.109,0,0,1-1.469,2.266A6.014,6.014,0,0,1,35.4,39.138a10.943,10.943,0,0,1-3.657.68c-2.079.094-2.7.117-7.955.117s-5.876-.023-7.955-.117a10.742,10.742,0,0,1-3.657-.68,6.109,6.109,0,0,1-2.266-1.469A6.014,6.014,0,0,1,8.437,35.4a10.944,10.944,0,0,1-.68-3.657c-.094-2.079-.117-2.7-.117-7.955s.023-5.876.117-7.955a10.742,10.742,0,0,1,.68-3.657A6.109,6.109,0,0,1,9.906,9.914a6.014,6.014,0,0,1,2.266-1.469,10.944,10.944,0,0,1,3.657-.68c2.079-.1,2.7-.117,7.955-.117m0-3.548c-5.345,0-6.017.023-8.119.117a14.428,14.428,0,0,0-4.774.914A9.6,9.6,0,0,0,7.405,7.405,9.764,9.764,0,0,0,5.131,10.89a14.437,14.437,0,0,0-.914,4.782c-.094,2.094-.117,2.766-.117,8.111s.023,6.017.117,8.119a14.523,14.523,0,0,0,.914,4.782A9.6,9.6,0,0,0,7.405,40.17a9.764,9.764,0,0,0,3.485,2.274,14.437,14.437,0,0,0,4.782.914c2.1.094,2.766.117,8.119.117s6.017-.023,8.119-.117a14.523,14.523,0,0,0,4.782-.914,9.6,9.6,0,0,0,3.485-2.274,9.764,9.764,0,0,0,2.274-3.485,14.438,14.438,0,0,0,.914-4.782c.094-2.1.117-2.766.117-8.119s-.023-6.017-.117-8.119a14.523,14.523,0,0,0-.914-4.782A9.594,9.594,0,0,0,40.177,7.4a9.764,9.764,0,0,0-3.485-2.274,14.438,14.438,0,0,0-4.782-.914C29.8,4.123,29.128,4.1,23.784,4.1Z" transform="translate(-3.801 -3.471)" fill="#fff"/>
      <path id="Path_224" data-name="Path 224" d="M136.711,126.6a10.111,10.111,0,1,0,10.111,10.111A10.113,10.113,0,0,0,136.711,126.6Zm0,16.675a6.564,6.564,0,1,1,6.564-6.564A6.563,6.563,0,0,1,136.711,143.275Z" transform="translate(-116.729 -116.399)" fill="#fff"/>
      <circle id="Ellipse_1" data-name="Ellipse 1" cx="2.36" cy="2.36" r="2.36" transform="translate(28.132 7.443)" fill="#fff"/>
    </g>
  </g>
</svg>
