<svg id="ic_social_fb" xmlns="http://www.w3.org/2000/svg" xmlns:xlink="http://www.w3.org/1999/xlink" width="48" height="48" viewBox="0 0 48 48">
  <defs>
    <clipPath id="clip-path">
      <rect id="Rectangle_949" data-name="Rectangle 949" width="48" height="48" fill="#fff" stroke="#fff" stroke-width="1"/>
    </clipPath>
    <clipPath id="clip-path-2">
      <rect id="Rectangle_277" data-name="Rectangle 277" width="39.385" height="40.615" transform="translate(0 0)" fill="#fff"/>
    </clipPath>
  </defs>
  <g id="Mask_Group_1" data-name="Mask Group 1" transform="translate(0 0)" clip-path="url(#clip-path)">
    <g id="Group_80" data-name="Group 80" transform="translate(4.923 3.692)" clip-path="url(#clip-path-2)">
      <path id="Path_286" data-name="Path 286" d="M40.008,20A20,20,0,1,0,16.878,39.766V25.786H11.8V20h5.079V15.6c0-5.013,2.985-7.783,7.556-7.783a30.765,30.765,0,0,1,4.477.391v4.923H26.388c-2.485,0-3.258,1.543-3.258,3.126V20h5.548l-.887,5.782H23.129V39.766A20.007,20.007,0,0,0,40.008,20Z" transform="translate(-0.343 0.308)" fill="#fff"/>
    </g>
  </g>
</svg>
